HIERARCHY
ROOT Root
{
	OFFSET 0.00000 0.00000 0.00000
	CHANNELS 6 Xposition Yposition Zposition Zrotation Xrotation Yrotation
	JOINT Hips
	{
		OFFSET 0 0 0	
		CHANNELS 3 Zrotation Xrotation Yrotation
		JOINT Spine
		{
			OFFSET 0 4 0	
			CHANNELS 3 Zrotation Xrotation Yrotation
			JOINT Spine1
			{
				OFFSET 0 19.4 0	
				CHANNELS 3 Zrotation Xrotation Yrotation
				JOINT Spine2
				{
					OFFSET 0 16.6 0	
					CHANNELS 3 Zrotation Xrotation Yrotation
					JOINT LeftCollar
					{
						OFFSET 0 10 0	
						CHANNELS 3 Zrotation Xrotation Yrotation
						JOINT LeftArm
						{
							OFFSET 15.6 -2 3	
							CHANNELS 3 Zrotation Xrotation Yrotation
							JOINT LeftForeArm
							{
								OFFSET 3.5 -27 -1	
								CHANNELS 3 Zrotation Xrotation Yrotation
								JOINT LeftHand
								{
									OFFSET 1 -27 1	
									CHANNELS 3 Zrotation Xrotation Yrotation
									End Site
									{
										OFFSET 0 -15 0
									}
								}
							}
						}
					}
					JOINT RightCollar
					{
						OFFSET 0 10 0	
						CHANNELS 3 Zrotation Xrotation Yrotation
						JOINT RightArm
						{
							OFFSET -15.6 -2 3	
							CHANNELS 3 Zrotation Xrotation Yrotation
							JOINT RightForeArm
							{
								OFFSET -3.5 -27 -1	
								CHANNELS 3 Zrotation Xrotation Yrotation
								JOINT RightHand
								{
									OFFSET -1 -27 1	
									CHANNELS 3 Zrotation Xrotation Yrotation
									End Site
									{
										OFFSET 0 -15 0
									}
								}
							}
						}
					}
					JOINT Neck
					{
						OFFSET 0 10 0	
						CHANNELS 3 Zrotation Xrotation Yrotation
						JOINT Head
						{
							OFFSET 0 12.7 3	
							CHANNELS 3 Zrotation Xrotation Yrotation
							End Site
							{
								OFFSET 0 12.7 3
							}
						}
					}
				}
			}
		}
	}
	JOINT LeftHip
	{
		OFFSET 0 0 0	
		CHANNELS 3 Zrotation Xrotation Yrotation
		JOINT LeftUpLeg
		{
			OFFSET 8.8 -6 0	
			CHANNELS 3 Zrotation Xrotation Yrotation
			JOINT LeftLeg
			{
				OFFSET 0 -39 2	
				CHANNELS 3 Zrotation Xrotation Yrotation
				JOINT LeftFoot
				{
					OFFSET 0 -43 -2	
					CHANNELS 3 Zrotation Xrotation Yrotation
					JOINT LeftFootFront
					{
						OFFSET 0 -7 8.5	
						CHANNELS 3 Zrotation Xrotation Yrotation
						End Site
						{
							OFFSET 0 -0.5 9
						}
					}
				}
				JOINT LeftHeel
				{
					OFFSET 0 -43 -2	
					CHANNELS 3 Zrotation Xrotation Yrotation
					End Site
					{
						OFFSET 0 -7.5 -5
					}
				}
			}
		}
	}
	JOINT RightHip
	{
		OFFSET 0 0 0	
		CHANNELS 3 Zrotation Xrotation Yrotation
		JOINT RightUpLeg
		{
			OFFSET -8.8 -6 0	
			CHANNELS 3 Zrotation Xrotation Yrotation
			JOINT RightLeg
			{
				OFFSET 0 -39 2	
				CHANNELS 3 Zrotation Xrotation Yrotation
				JOINT RightFoot
				{
					OFFSET 0 -43 -2	
					CHANNELS 3 Zrotation Xrotation Yrotation
					JOINT RightFootFront
					{
						OFFSET 0 -7 8.5	
						CHANNELS 3 Zrotation Xrotation Yrotation
						End Site
						{
							OFFSET 0 -0.5 9
						}
					}
				}
				JOINT RightHeel
				{
					OFFSET 0 -43 -2	
					CHANNELS 3 Zrotation Xrotation Yrotation
					End Site
					{
						OFFSET 0 -7.5 -5
					}
				}
			}
		}
	}
}
MOTION
Frames: 12
Frame Time: 0.008
47.172 94.821 -0.43493 -0 0 -0 -4.8729 -2.9103 26.627 9.8571 -2.4338 6.088 9.8571 -2.4338 6.088 8.2626 -2.1156 5.0866 -0 0 -0 3.434 -79.706 -53.811 -20.599 -47.071 -18.022 -18.682 22.719 19.524 -0 0 -0 -96.534 -2.099 -51.282 104.47 -36.486 34.711 6.415 -0.11633 11.39 -5.6129 19.504 -1.3217 0.97397 16.83 3.747 -4.8729 -2.9103 26.627 16.105 -2.6 13.686 4.7461 4.7386 -6.7387 -28.103 12.669 0.1172 -0.0090133 -12.946 -0.0079196 -0 0 -0 -4.8729 -2.9103 26.627 -24.149 -13.669 -20.219 -4.4175 64.716 -7.2052 7.4649 -9.0408 -14.57 -0.019835 0.021665 -0.0088883 -0 0 -0 
48.006 95.048 -0.50609 -0 0 -0 -5.1271 -3.1664 27.234 10.07 -2.6751 6.6574 10.07 -2.6751 6.6574 8.4378 -2.3266 5.5614 -0 0 -0 7.5261 -78.462 -49.754 -20.932 -46.494 -18.466 -17.103 21.512 19.157 -0 0 -0 -97.031 -2.297 -50.934 104.23 -36.421 35.19 6.391 0.050686 11.807 -5.4662 19.983 -2.375 1.093 17.05 3.1787 -5.1271 -3.1664 27.234 15.94 -2.228 13.223 4.537 4.3274 -7.1563 -28.483 12.848 0.4724 -0.012735 -13.367 -0.0088793 -0 0 -0 -5.1271 -3.1664 27.234 -24.078 -13.909 -20.045 -4.7881 66.955 -6.7892 6.2286 -9.3775 -15.518 -0.028702 0.020861 -0.018699 -0 0 -0 
48.811 95.265 -0.57681 -0 0 -0 -5.3645 -3.4153 27.881 10.288 -2.9152 7.1556 10.288 -2.9152 7.1556 8.6172 -2.5362 5.9764 -0 0 -0 10.756 -77.125 -46.321 -21.207 -45.886 -18.928 -15.561 20.293 18.809 -0 0 -0 -97.414 -2.7091 -50.679 103.87 -36.413 35.74 6.4227 0.20342 12.187 -5.3863 20.444 -3.3317 1.1659 17.255 2.6429 -5.3645 -3.4153 27.881 15.717 -1.9013 12.781 4.4244 3.9222 -7.4376 -28.845 13.111 0.66597 -0.01543 -13.772 -0.010568 -0 0 -0 -5.3645 -3.4153 27.881 -23.954 -14.184 -20.041 -5.523 69.124 -6.0352 4.9834 -9.6592 -16.466 -0.038168 0.017506 -0.029295 -0 0 -0 
49.586 95.472 -0.64614 -0 0 -0 -5.551 -3.6644 28.564 10.507 -3.1396 7.5809 10.507 -3.1396 7.5808 8.7975 -2.7319 6.33 -0 0 -0 13.354 -75.719 -43.257 -21.438 -45.27 -19.413 -14.093 19.096 18.467 -0 0 -0 -97.694 -3.3323 -50.509 103.4 -36.499 36.36 6.5253 0.3303 12.514 -5.386 20.879 -4.1861 1.18 17.447 2.1431 -5.551 -3.6644 28.564 15.416 -1.6133 12.344 4.4046 3.5403 -7.5727 -29.187 13.459 0.71036 -0.01742 -14.163 -0.01277 -0 0 -0 -5.551 -3.6644 28.564 -23.796 -14.48 -20.184 -6.7062 71.216 -4.8801 3.7419 -9.8823 -17.382 -0.047944 0.012775 -0.039191 -0 0 -0 
50.331 95.669 -0.71311 -0 0 -0 -5.6609 -3.9211 29.275 10.726 -3.3373 7.9339 10.726 -3.3373 7.9339 8.9782 -2.9045 6.6232 -0 0 -0 15.466 -74.253 -40.396 -21.644 -44.664 -19.92 -12.717 17.957 18.102 -0 0 -0 -97.888 -4.163 -50.406 102.86 -36.701 37.03 6.6975 0.42389 12.782 -5.4782 21.287 -4.9343 1.1239 17.633 1.6833 -5.6609 -3.9211 29.275 15.031 -1.3468 11.909 4.466 3.187 -7.5828 -29.509 13.886 0.63667 -0.019045 -14.541 -0.015065 -0 0 -0 -5.6609 -3.9211 29.275 -23.62 -14.787 -20.444 -8.4238 73.221 -3.2525 2.52 -10.042 -18.232 -0.05789 0.0075261 -0.047484 -0 0 -0 
51.046 95.856 -0.77678 -0 0 -0 -5.6802 -4.1911 30.006 10.947 -3.5033 8.2167 10.947 -3.5033 8.2167 9.1615 -3.0498 6.8578 -0 0 -0 17.173 -72.728 -37.644 -21.844 -44.085 -20.447 -11.437 16.905 17.672 -0 0 -0 -98.01 -5.1966 -50.341 102.29 -37.027 37.711 6.9221 0.48153 12.997 -5.6754 21.674 -5.5736 0.9885 17.818 1.2668 -5.6802 -4.1911 30.006 14.568 -1.0791 11.489 4.5909 2.8564 -7.5106 -29.815 14.379 0.48601 -0.020625 -14.909 -0.017248 -0 0 -0 -5.6802 -4.1911 30.006 -23.438 -15.097 -20.794 -10.761 75.13 -1.0705 1.3341 -10.136 -18.988 -0.067744 0.0022872 -0.053319 -0 0 -0 
51.731 96.033 -0.83615 -0 0 -0 -5.6072 -4.4776 30.753 11.176 -3.6388 8.4318 11.176 -3.6388 8.4318 9.3515 -3.1688 7.0357 -0 0 -0 18.521 -71.139 -34.956 -22.055 -43.542 -20.982 -10.252 15.957 17.139 -0 0 -0 -98.076 -6.4284 -50.283 101.71 -37.461 38.347 7.1715 0.50558 13.179 -5.9879 22.048 -6.102 0.76771 18.011 0.89616 -5.6072 -4.4776 30.753 14.045 -0.78737 11.099 4.7579 2.5343 -7.409 -30.107 14.918 0.30165 -0.022398 -15.271 -0.0192 -0 0 -0 -5.6072 -4.4776 30.753 -23.266 -15.407 -21.21 -13.801 76.936 1.7587 0.19897 -10.163 -19.633 -0.077073 -0.0025228 -0.05599 -0 0 -0 
52.386 96.201 -0.89026 -0 0 -0 -5.4501 -4.781 31.518 11.418 -3.7496 8.5812 11.418 -3.7496 8.5812 9.553 -3.2664 7.1588 -0 0 -0 19.542 -69.48 -32.314 -22.283 -43.041 -21.513 -9.1607 15.119 16.481 -0 0 -0 -98.094 -7.8521 -50.205 101.17 -37.979 38.879 7.415 0.50293 13.35 -6.4225 22.42 -6.5187 0.45938 18.216 0.5725 -5.4501 -4.781 31.518 13.485 -0.4536 10.756 4.9438 2.2026 -7.3322 -30.388 15.487 0.12342 -0.024441 -15.628 -0.021032 -0 0 -0 -5.4501 -4.781 31.518 -23.114 -15.717 -21.673 -17.628 78.633 5.3412 -0.87374 -10.122 -20.166 -0.085087 -0.0064145 -0.055007 -0 0 -0 
53.011 96.36 -0.93811 -0 0 -0 -5.2232 -5.0986 32.306 11.678 -3.8442 8.667 11.678 -3.8442 8.667 9.7697 -3.3497 7.2284 -0 0 -0 20.262 -67.747 -29.711 -22.53 -42.59 -22.031 -8.1633 14.387 15.698 -0 0 -0 -98.067 -9.4587 -50.087 100.68 -38.544 39.253 7.6261 0.48367 13.538 -6.9811 22.798 -6.8241 0.065639 18.434 0.29528 -5.2232 -5.0986 32.306 12.915 -0.067569 10.474 5.1264 1.8441 -7.3294 -30.655 16.068 -0.015874 -0.026742 -15.984 -0.022958 -0 0 -0 -5.2232 -5.0986 32.306 -22.991 -16.033 -22.169 -22.344 80.217 9.8086 -1.8759 -10.013 -20.597 -0.090801 -0.0088137 -0.050427 -0 0 -0 
53.606 96.509 -0.97872 -0 0 -0 -4.9431 -5.4259 33.125 11.958 -3.9313 8.6916 11.958 -3.9313 8.6915 10.004 -3.4262 7.2466 -0 0 -0 20.709 -65.942 -27.147 -22.787 -42.195 -22.528 -7.2652 13.753 14.811 -0 0 -0 -97.991 -11.234 -49.919 100.25 -39.123 39.435 7.7872 0.45938 13.762 -7.6596 23.184 -7.0213 -0.40697 18.661 0.061763 -4.9431 -5.4259 33.125 12.357 0.37195 10.266 5.2854 1.4471 -7.4397 -30.905 16.645 -0.091911 -0.029123 -16.336 -0.02521 -0 0 -0 -4.9431 -5.4259 33.125 -22.904 -16.361 -22.687 -28.107 81.686 15.353 -2.8025 -9.8353 -20.954 -0.09327 -0.009272 -0.04302 -0 0 -0 
54.172 96.65 -1.0111 -0 0 -0 -4.6252 -5.7568 33.983 12.258 -4.0195 8.6585 12.258 -4.0195 8.6585 10.255 -3.503 7.2162 -0 0 -0 20.9 -64.069 -24.635 -23.045 -41.861 -23.004 -6.4733 13.205 13.857 -0 0 -0 -97.855 -13.157 -49.696 99.862 -39.687 39.413 7.8915 0.44171 14.03 -8.4476 23.576 -7.1174 -0.94781 18.892 -0.13333 -4.6252 -5.7568 33.983 11.829 0.85803 10.135 5.4041 1.0078 -7.6895 -31.129 17.202 -0.089386 -0.031341 -16.685 -0.027921 -0 0 -0 -4.6252 -5.7568 33.983 -22.858 -16.709 -23.222 -35.206 83.036 22.293 -3.6508 -9.5861 -21.268 -0.092049 -0.0076564 -0.034328 -0 0 -0 
54.71 96.783 -1.0344 -0 0 -0 -4.2817 -6.085 34.888 12.576 -4.1162 8.5731 12.576 -4.1163 8.573 10.522 -3.5863 7.1416 -0 0 -0 20.843 -62.134 -22.196 -23.29 -41.597 -23.461 -5.7921 12.74 12.879 -0 0 -0 -97.643 -15.201 -49.413 99.516 -40.215 39.198 7.9416 0.44148 14.337 -9.3291 23.97 -7.1238 -1.5428 19.119 -0.29792 -4.2817 -6.085 34.888 11.342 1.3781 10.081 5.4704 0.53098 -8.0906 -31.32 17.726 -0.0016147 -0.033223 -17.025 -0.03121 -0 0 -0 -4.2817 -6.085 34.888 -22.855 -17.082 -23.769 -44.173 84.25 31.186 -4.4191 -9.2632 -21.576 -0.087557 -0.0043358 -0.026329 -0 0 -0 
